<svg class="foobot-logo" version="1.1" id="Layer_1" xmlns="http://www.w3.org/2000/svg" xmlns:xlink="http://www.w3.org/1999/xlink" x="0px" y="0px" viewBox="0 0 506.1 92.3" style="enable-background:new 0 0 506.1 92.3;" xml:space="preserve">
<g class="wordmark">
	<path class="st0" d="M191.7,80.1c-13.4,0-24.3-10.2-24.3-22.7c0-12.5,10.9-22.7,24.3-22.7c13.4,0,24.3,10.2,24.3,22.7
		C216,69.9,205.1,80.1,191.7,80.1 M229.1,57.4c0-19.3-16.8-34.9-37.4-34.9c-20.6,0-37.4,15.7-37.4,34.9c0,19.3,16.8,34.9,37.4,34.9
		C212.3,92.3,229.1,76.7,229.1,57.4"></path>
	<path class="st0" d="M269,80.1c-13.4,0-24.3-10.2-24.3-22.7c0-12.5,10.9-22.7,24.3-22.7c13.4,0,24.3,10.2,24.3,22.7
		C293.3,69.9,282.4,80.1,269,80.1 M306.5,57.4c0-19.3-16.8-34.9-37.4-34.9c-20.6,0-37.4,15.7-37.4,34.9c0,19.3,16.8,34.9,37.4,34.9
		C289.7,92.3,306.5,76.7,306.5,57.4"></path>
	<path class="st0" d="M426.2,80.1c-13.4,0-24.3-10.2-24.3-22.7c0-12.5,10.9-22.7,24.3-22.7c13.4,0,24.3,10.2,24.3,22.7
		C450.5,69.9,439.6,80.1,426.2,80.1 M463.7,57.4c0-19.3-16.8-34.9-37.4-34.9c-20.6,0-37.4,15.7-37.4,34.9
		c0,19.3,16.8,34.9,37.4,34.9C446.9,92.3,463.7,76.7,463.7,57.4"></path>
	<path class="st0" d="M348.9,79.6c-13.4,0-24.3-10.6-24.3-23.6c0-13,10.9-23.6,24.3-23.6c13.4,0,24.3,10.6,24.3,23.6
		C373.2,68.9,362.3,79.6,348.9,79.6 M348.9,19.5c-9.3,0-17.8,3.3-24.3,8.8V12.2C324.2,3.4,318,0,311.4,0v56h0
		c0,20.1,16.8,36.3,37.4,36.3c20.6,0,37.4-16.3,37.4-36.4C386.3,35.8,369.5,19.5,348.9,19.5"></path>
	<path class="st0" d="M494.2,76.8c-0.1-0.1-0.3-0.1-0.4-0.2c-0.1-0.1-0.2-0.1-0.3-0.2l0,0c-7.2-4.1-12-11.7-12-20.5h0V32.8h14.4
		c5.4-0.9,10.1-4.5,10.2-12.3V20h-24.6V9.1C480,2.6,474.6,0,469,0h-0.4v56h0c0,20,16.5,36.3,36.6,36.3
		C505.3,83.3,500.6,80.2,494.2,76.8"></path>
	<path class="st0" d="M127.2,83.2V50H141c5.7-0.7,10.6-4.3,10.8-12.4v-0.3h-24.6v-0.8h0c0-8.8,4.8-16.4,12-20.5l0,0
		c0.1-0.1,0.2-0.1,0.3-0.2c0.1-0.1,0.3-0.1,0.4-0.2C146.2,12.2,151,9,151,0c-20.2,0-36.6,16.3-36.7,36.3h0v56h0.4
		C120.3,92.3,125.7,89.7,127.2,83.2"></path>
</g>
<g class="target">
	<path class="ring ring__outer" d="M42.5,13.9c-18.7,0-33.9,15.2-33.9,33.9s15.2,33.9,33.9,33.9s33.9-15.2,33.9-33.9S61.2,13.9,42.5,13.9
		 M42.5,90.3C19.1,90.3,0,71.3,0,47.9C0,24.5,19.1,5.4,42.5,5.4s42.5,19.1,42.5,42.5C84.9,71.3,65.9,90.3,42.5,90.3"></path>
	<path class="ring ring__middle" d="M42.5,30.3c-9.7,0-17.6,7.9-17.6,17.6c0,9.7,7.9,17.6,17.6,17.6s17.6-7.9,17.6-17.6
		C60.1,38.2,52.2,30.3,42.5,30.3 M42.5,73.8c-14.3,0-26-11.6-26-26c0-14.3,11.6-26,26-26s26,11.6,26,26
		C68.4,62.2,56.8,73.8,42.5,73.8"></path>
	<path class="ring ring__inner" d="M51.9,47.9c0,5.2-4.2,9.4-9.4,9.4S33,53.1,33,47.9c0-5.2,4.2-9.4,9.4-9.4S51.9,42.7,51.9,47.9"></path>
</g>
</svg>
